<svg width="156" height="40" viewBox="0 0 156 40" fill="none" xmlns="http://www.w3.org/2000/svg">
<path fill-rule="evenodd" clip-rule="evenodd" d="M69.9506 12.3231C71.2589 12.3231 72.3548 12.6498 73.2383 13.3029C74.1218 13.9561 74.7456 14.8821 75.1098 16.0807C75.474 17.2794 75.5213 18.6935 75.2515 20.3231C74.9818 21.9662 74.4659 23.3905 73.7038 24.5959C72.9418 25.7946 72.011 26.724 70.9117 27.3839C69.8124 28.0371 68.6152 28.3637 67.3203 28.3637C66.3222 28.3637 65.55 28.1987 65.0037 27.8687C64.4575 27.532 64.0596 27.1514 63.8101 26.7272C63.5829 26.3348 63.4032 26.0037 63.2711 25.7341C63.2478 25.6868 63.1997 25.6565 63.147 25.6565C63.0801 25.6565 63.0231 25.7048 63.012 25.7706L61.811 32.931C61.7212 33.4663 61.257 33.8585 60.7134 33.8585H60.5626C59.8745 33.8585 59.3513 33.2413 59.465 32.5638L62.6732 13.4527C62.763 12.9174 63.227 12.5252 63.7705 12.5252H63.8846C64.5399 12.5252 65.0391 13.1119 64.9331 13.7576L64.7631 14.7917C64.7461 14.8955 64.8264 14.9898 64.9318 14.9898C64.9837 14.9898 65.0327 14.9664 65.0654 14.9262C65.2761 14.6671 65.5557 14.3449 65.9041 13.9596C66.2885 13.5354 66.8044 13.1583 67.4518 12.8283C68.106 12.4916 68.939 12.3231 69.9506 12.3231ZM69.3031 14.4646C68.332 14.4646 67.4721 14.7105 66.7235 15.202C65.9817 15.6869 65.368 16.367 64.8824 17.2424C64.4036 18.1111 64.0698 19.1245 63.8809 20.2828C63.6921 21.4545 63.6921 22.4883 63.8809 23.3839C64.0765 24.2727 64.4644 24.9698 65.0443 25.4748C65.6311 25.9731 66.4034 26.2222 67.361 26.2222C68.3591 26.2222 69.2324 25.9595 69.981 25.4342C70.7363 24.9023 71.3568 24.1885 71.8423 23.293C72.3346 22.3906 72.6752 21.3871 72.864 20.2828C73.0394 19.1919 73.0327 18.2087 72.8438 17.3333C72.655 16.4512 72.2706 15.7542 71.6906 15.2424C71.1106 14.7239 70.3147 14.4646 69.3031 14.4646Z" fill="#1C1C1C"/>
<path fill-rule="evenodd" clip-rule="evenodd" d="M38.9646 12.3231C39.7739 12.3231 40.5529 12.4579 41.3015 12.7272C42.05 12.9966 42.6976 13.4343 43.2438 14.0404C43.7901 14.6397 44.1712 15.4344 44.387 16.4243C44.6028 17.4141 44.5894 18.633 44.3466 20.0807L44.3347 20.1554C44.2483 20.6944 43.7825 21.0909 43.2358 21.0909H33.4133C33.2463 21.0909 33.0899 21.0513 32.9517 20.982C32.928 20.9701 32.8991 20.9841 32.895 21.0102C32.6927 22.2963 32.723 23.3198 32.986 24.0807C33.2558 24.8417 33.7245 25.3905 34.3922 25.7272C35.0599 26.0572 35.8961 26.2222 36.901 26.2222C37.5417 26.2222 38.1319 26.1347 38.6714 25.9596C39.2109 25.7778 39.6932 25.5084 40.118 25.1515C40.3265 24.973 40.5188 24.7733 40.6949 24.5527C41.0234 24.1411 41.5526 23.9052 42.058 24.0547L42.1291 24.0757C42.7838 24.2694 43.1146 25.0085 42.7009 25.551C42.4406 25.8923 42.1428 26.2103 41.8074 26.505C41.1398 27.0908 40.3573 27.5487 39.4604 27.8787C38.5702 28.2019 37.5957 28.3637 36.5369 28.3637C35.0465 28.3637 33.8155 28.0336 32.8443 27.3737C31.8732 26.707 31.1955 25.7778 30.8111 24.5859C30.4267 23.3873 30.366 21.9933 30.629 20.4041C30.892 18.8149 31.4146 17.4141 32.1969 16.202C32.9792 14.9832 33.9538 14.0336 35.1205 13.3535C36.2872 12.6667 37.5686 12.3231 38.9646 12.3231ZM38.6006 14.4646C37.7036 14.4646 36.8672 14.707 36.0916 15.1918C35.316 15.6699 34.6687 16.2762 34.1494 17.0102C33.7173 17.6155 33.4208 18.2301 33.2596 18.8541C33.2358 18.9463 33.3181 19.0304 33.4133 19.0304H41.1474C41.6871 19.0304 42.1647 18.6428 42.1723 18.1039C42.1796 17.5938 42.1085 17.1215 41.9591 16.6868C41.7298 16 41.3285 15.4578 40.7553 15.0605C40.1888 14.6633 39.4705 14.4646 38.6006 14.4646Z" fill="#1C1C1C"/>
<path fill-rule="evenodd" clip-rule="evenodd" d="M86.5082 12.3231C87.3175 12.3231 88.0965 12.4579 88.8451 12.7272C89.5936 12.9966 90.2412 13.4343 90.7874 14.0404C91.3337 14.6397 91.7148 15.4344 91.9306 16.4243C92.1464 17.4141 92.133 18.633 91.8902 20.0807L91.8783 20.1554C91.7919 20.6944 91.3261 21.0909 90.7794 21.0909H80.9571C80.7901 21.0909 80.6335 21.0513 80.4953 20.982C80.4716 20.9701 80.4427 20.9841 80.4386 21.0102C80.2363 22.2963 80.2666 23.3198 80.5296 24.0807C80.7994 24.8417 81.2681 25.3905 81.9358 25.7272C82.6035 26.0572 83.4397 26.2222 84.4446 26.2222C85.0853 26.2222 85.6755 26.1347 86.215 25.9596C86.7545 25.7778 87.2368 25.5084 87.6616 25.1515C87.8701 24.973 88.0624 24.7734 88.2385 24.5527C88.5669 24.1411 89.0962 23.9052 89.6016 24.0547L89.6727 24.0757C90.3275 24.2694 90.6582 25.0085 90.2445 25.551C89.9842 25.8923 89.6864 26.2103 89.351 26.505C88.6834 27.0908 87.9009 27.5487 87.004 27.8787C86.1138 28.2019 85.1393 28.3637 84.0805 28.3637C82.5901 28.3637 81.3591 28.0336 80.3879 27.3737C79.4168 26.707 78.7391 25.7778 78.3547 24.5859C77.9703 23.3873 77.9096 21.9933 78.1726 20.4041C78.4356 18.8148 78.9584 17.4142 79.7407 16.202C80.523 14.9832 81.4974 14.0336 82.6641 13.3535C83.8308 12.6667 85.1122 12.3231 86.5082 12.3231ZM86.1442 14.4646C85.2472 14.4646 84.4108 14.707 83.6352 15.1918C82.8596 15.6699 82.2123 16.2762 81.693 17.0102C81.2609 17.6154 80.9645 18.23 80.8033 18.8539C80.7794 18.9461 80.8618 19.0304 80.9571 19.0304H88.691C89.2307 19.0304 89.7083 18.6428 89.7159 18.1039C89.7232 17.5938 89.6521 17.1215 89.5027 16.6868C89.2734 16 88.8721 15.4578 88.2989 15.0605C87.7324 14.6633 87.0141 14.4646 86.1442 14.4646Z" fill="#1C1C1C"/>
<path d="M29.3597 7.35352C30.046 7.35352 30.5687 7.96782 30.4579 8.6441C30.3699 9.18133 29.9049 9.57574 29.3597 9.57574H21.3331C20.7895 9.57574 20.3254 9.96796 20.2355 10.5033L19.4353 15.2708C19.3215 15.9484 19.8446 16.5657 20.5326 16.5657H26.8914C27.5776 16.5657 28.1004 17.1799 27.9896 17.8561C27.9015 18.3934 27.4366 18.788 26.8914 18.788H19.7969C19.2527 18.788 18.7883 19.1809 18.6992 19.717L17.4705 27.1111C17.3814 27.6472 16.917 28.0403 16.3728 28.0404H16.12C15.4327 28.0404 14.9097 27.4244 15.0222 26.7474L18.0921 8.28277C18.1813 7.7467 18.6457 7.35354 19.1899 7.35352H29.3597Z" fill="#1C1C1C"/>
<path d="M51.2128 7.35352C51.9001 7.35358 52.423 7.96969 52.3104 8.6467L49.2405 27.1113C49.1513 27.6474 48.6869 28.0404 48.1427 28.0404H48.0112C47.3239 28.0403 46.8011 27.4244 46.9136 26.7474L49.9835 8.28277C50.0727 7.74668 50.5371 7.35352 51.0813 7.35352H51.2128Z" fill="#1C1C1C"/>
<path d="M57.1223 12.5252C57.8099 12.5252 58.3329 13.1418 58.2199 13.819L56.001 27.112C55.9116 27.6477 55.4474 28.0403 54.9035 28.0404H54.7722C54.0846 28.0403 53.5616 27.4237 53.6746 26.7465L55.8935 13.4538C55.9829 12.918 56.4471 12.5252 56.991 12.5252H57.1223Z" fill="#1C1C1C"/>
<path fill-rule="evenodd" clip-rule="evenodd" d="M105.006 7.35352C106.624 7.35352 107.906 7.62622 108.85 8.17166C109.801 8.71711 110.445 9.46803 110.782 10.4243C111.126 11.3805 111.197 12.4715 110.995 13.697C110.792 14.9091 110.361 15.9865 109.7 16.9292C109.046 17.872 108.155 18.6127 107.029 19.1515C106.562 19.376 106.301 19.9099 106.486 20.3934L108.839 26.5323C109.117 27.2598 108.579 28.0403 107.799 28.0404H107.275C106.811 28.0403 106.395 27.7525 106.233 27.3183L103.585 20.2478C103.524 20.0863 103.381 19.9537 103.209 19.957C103.121 19.9587 103.032 19.9596 102.942 19.9596H98.606C98.5044 19.9596 98.4095 20.0256 98.3928 20.1258L97.2294 27.1115C97.1401 27.6475 96.6757 28.0404 96.1316 28.0404H95.8786C95.1913 28.0404 94.6683 27.4244 94.7808 26.7474L97.851 8.28277C97.9401 7.74671 98.4044 7.35356 98.9486 7.35352H105.006ZM101.093 9.57574C100.549 9.57574 100.085 9.96863 99.9953 10.5046L98.9912 16.5327C98.8897 17.1422 99.3597 17.697 99.9776 17.697H103.266C104.372 17.697 105.289 17.5352 106.017 17.212C106.746 16.8888 107.312 16.4276 107.717 15.8283C108.122 15.229 108.391 14.5186 108.526 13.697C108.661 12.862 108.624 12.138 108.415 11.5252C108.213 10.9057 107.798 10.4276 107.171 10.0909C106.55 9.7475 105.68 9.57574 104.561 9.57574H101.093Z" fill="#1C1C1C"/>
<path d="M129.323 7.35352C130.009 7.35352 130.532 7.96782 130.421 8.6441C130.333 9.18134 129.868 9.57574 129.323 9.57574H124.697C124.153 9.57574 123.688 9.96862 123.599 10.5046L120.833 27.1115C120.744 27.6475 120.279 28.0404 119.735 28.0404H119.483C118.795 28.0404 118.272 27.4241 118.385 26.747L121.029 10.8691C121.142 10.192 120.619 9.57574 119.932 9.57574H116.04C115.353 9.57574 114.831 8.96143 114.942 8.28516C115.03 7.74794 115.495 7.35352 116.04 7.35352H129.323Z" fill="#1C1C1C"/>
<path d="M57.9706 6.66667C58.4359 6.66668 58.8338 6.82501 59.1642 7.14149C59.5014 7.45797 59.6699 7.83836 59.67 8.28277C59.67 8.72721 59.5014 9.10776 59.1642 9.42426C58.8338 9.74073 58.4359 9.89907 57.9706 9.89909C57.5052 9.89909 57.1039 9.74074 56.7667 9.42426C56.4363 9.10776 56.271 8.72721 56.271 8.28277C56.271 7.83835 56.4363 7.45797 56.7667 7.14149C57.1039 6.82499 57.5052 6.66667 57.9706 6.66667Z" fill="#1C1C1C"/>
<g filter="url(#filter0_d_21_30)">
<path d="M8.33835 21.5555L8.98963 21.6196L9.61588 21.8093L10.193 22.1173L10.6989 22.5319L11.1141 23.037L11.4226 23.6133L11.6125 24.2386L11.6767 24.8889L11.6125 25.5392L11.4226 26.1645L11.1141 26.7408L10.6989 27.2459L10.193 27.6604L9.61588 27.9685L8.98963 28.1582L8.33835 28.2222L7.68707 28.1582L7.06082 27.9685L6.48366 27.6604L5.97778 27.2459L5.56261 26.7408L5.25412 26.1645L5.06415 25.5392L5 24.8889L5.06415 24.2386L5.25412 23.6133L5.56261 23.037L5.97778 22.5319L6.48366 22.1173L7.06082 21.8093L7.68707 21.6196L8.33835 21.5555Z" fill="url(#paint0_linear_21_30)" shape-rendering="crispEdges"/>
</g>
<g filter="url(#filter1_d_21_30)">
<path d="M142.531 6.40798L142.782 6.32479L143.54 6.4112C144.07 6.47168 144.37 6.52443 144.437 6.56944C144.598 6.66234 144.663 6.78153 144.631 6.927C144.607 7.03611 144.388 7.20689 143.974 7.43934C140.744 9.17739 138.373 11.8337 136.862 15.4081C135.702 18.0907 135.096 20.8457 135.044 23.6731C134.961 27.4663 136.096 30.5411 138.452 32.8975C138.601 33.045 138.701 33.1776 138.753 33.2953C138.889 33.4973 138.79 33.6538 138.455 33.7647C138.371 33.7924 138.064 33.776 137.534 33.7156L136.776 33.6291L136.573 33.4941C136.416 33.383 136.228 33.2404 136.007 33.0661C134.068 31.5215 132.629 29.7077 131.69 27.6245C130.219 24.3065 130.137 20.7927 131.445 17.0832C132.444 14.3078 134.076 11.9494 136.341 10.0081C137.878 8.67341 139.7 7.56708 141.809 6.68913C142.094 6.57246 142.334 6.47874 142.531 6.40798Z" fill="url(#paint1_linear_21_30)" shape-rendering="crispEdges"/>
<path d="M145.112 2.00204C145.191 1.99249 145.484 2.01652 145.989 2.07412L146.747 2.16053L146.95 2.29556C147.107 2.40665 147.295 2.54933 147.516 2.72361C149.145 4.02785 150.403 5.48558 151.292 7.09681C153.063 10.2255 153.457 13.6724 152.473 17.4376C151.719 20.2782 150.28 22.7611 148.155 24.8862C146.367 26.6583 144.22 28.0632 141.714 29.1009C141.429 29.2175 141.188 29.3113 140.992 29.382L140.74 29.4652L139.983 29.3788C139.402 29.3126 139.058 29.2268 138.952 29.1214C138.871 29.019 138.872 28.8979 138.954 28.7582C138.995 28.6883 139.179 28.5601 139.505 28.3736C141.009 27.5385 142.284 26.5655 143.331 25.4546C144.936 23.8107 146.16 21.8346 147.004 19.5262C147.834 17.4025 148.312 15.2294 148.438 13.0069C148.763 8.9428 147.651 5.58178 145.103 2.92379C144.873 2.67389 144.754 2.51113 144.744 2.43551C144.691 2.20577 144.814 2.06128 145.112 2.00204Z" fill="url(#paint2_linear_21_30)" shape-rendering="crispEdges"/>
</g>
<defs>
<filter id="filter0_d_21_30" x="0" y="19.5555" width="14.6767" height="14.6667" filterUnits="userSpaceOnUse" color-interpolation-filters="sRGB">
<feFlood flood-opacity="0" result="BackgroundImageFix"/>
<feColorMatrix in="SourceAlpha" type="matrix" values="0 0 0 0 0 0 0 0 0 0 0 0 0 0 0 0 0 0 127 0" result="hardAlpha"/>
<feOffset dx="-1" dy="2"/>
<feGaussianBlur stdDeviation="2"/>
<feComposite in2="hardAlpha" operator="out"/>
<feColorMatrix type="matrix" values="0 0 0 0 0.540972 0 0 0 0 0 0 0 0 0 0.854167 0 0 0 0.3 0"/>
<feBlend mode="normal" in2="BackgroundImageFix" result="effect1_dropShadow_21_30"/>
<feBlend mode="normal" in="SourceGraphic" in2="effect1_dropShadow_21_30" result="shape"/>
</filter>
<filter id="filter1_d_21_30" x="125.522" y="1.02685e-10" width="30.4782" height="39.7778" filterUnits="userSpaceOnUse" color-interpolation-filters="sRGB">
<feFlood flood-opacity="0" result="BackgroundImageFix"/>
<feColorMatrix in="SourceAlpha" type="matrix" values="0 0 0 0 0 0 0 0 0 0 0 0 0 0 0 0 0 0 127 0" result="hardAlpha"/>
<feOffset dx="-1" dy="2"/>
<feGaussianBlur stdDeviation="2"/>
<feComposite in2="hardAlpha" operator="out"/>
<feColorMatrix type="matrix" values="0 0 0 0 0.540972 0 0 0 0 0 0 0 0 0 0.854167 0 0 0 0.3 0"/>
<feBlend mode="normal" in2="BackgroundImageFix" result="effect1_dropShadow_21_30"/>
<feBlend mode="normal" in="SourceGraphic" in2="effect1_dropShadow_21_30" result="shape"/>
</filter>
<linearGradient id="paint0_linear_21_30" x1="1.97392" y1="33.8316" x2="16.425" y2="13.9529" gradientUnits="userSpaceOnUse">
<stop offset="0.11478" stop-color="#0E1FD7"/>
<stop offset="0.671137" stop-color="#8A00DA" stop-opacity="0.84"/>
</linearGradient>
<linearGradient id="paint1_linear_21_30" x1="123.234" y1="39.2624" x2="173.414" y2="8.64972" gradientUnits="userSpaceOnUse">
<stop offset="0.11478" stop-color="#0E1FD7"/>
<stop offset="0.671137" stop-color="#8A00DA" stop-opacity="0.84"/>
</linearGradient>
<linearGradient id="paint2_linear_21_30" x1="123.234" y1="39.2624" x2="173.414" y2="8.64972" gradientUnits="userSpaceOnUse">
<stop offset="0.11478" stop-color="#0E1FD7"/>
<stop offset="0.671137" stop-color="#8A00DA" stop-opacity="0.84"/>
</linearGradient>
</defs>
</svg>
