<svg xmlns="http://www.w3.org/2000/svg" width="32" height="32" viewBox="0 0 40 40">
  <defs>
    <linearGradient id="paint0_linear_28_14" x1="1.97392" y1="33.8316" x2="16.425" y2="13.9529" gradientUnits="userSpaceOnUse">
      <stop offset="0.11478" stop-color="#0E1FD7"/>
      <stop offset="0.671137" stop-color="#8A00DA" stop-opacity="0.84"/>
    </linearGradient>
    <linearGradient id="paint1_linear_28_14" x1="7.23388" y1="39.2624" x2="57.4138" y2="8.64972" gradientUnits="userSpaceOnUse">
      <stop offset="0.11478" stop-color="#0E1FD7"/>
      <stop offset="0.671137" stop-color="#8A00DA" stop-opacity="0.84"/>
    </linearGradient>
    <linearGradient id="paint2_linear_28_14" x1="7.23388" y1="39.2624" x2="57.4138" y2="8.64972" gradientUnits="userSpaceOnUse">
      <stop offset="0.11478" stop-color="#0E1FD7"/>
      <stop offset="0.671137" stop-color="#8A00DA" stop-opacity="0.84"/>
    </linearGradient>
  </defs>

  <path
    d="M8.33835 21.5555L8.98963 21.6196L9.61588 21.8093L10.193 22.1173L10.6989 22.5319L11.1141 23.037L11.4226 23.6133L11.6125 24.2386L11.6767 24.8889L11.6125 25.5392L11.4226 26.1645L11.1141 26.7408L10.6989 27.2459L10.193 27.6604L9.61588 27.9685L8.98963 28.1582L8.33835 28.2222L7.68707 28.1582L7.06082 27.9685L6.48366 27.6604L5.97778 27.2459L5.56261 26.7408L5.25412 26.1645L5.06415 25.5392L5 24.8889L5.06415 24.2386L5.25412 23.6133L5.56261 23.037L5.97778 22.5319L6.48366 22.1173L7.06082 21.8093L7.68707 21.6196L8.33835 21.5555Z"
    fill="url(#paint0_linear_28_14)"
    shape-rendering="crispEdges"
  />
  <path
    d="M26.5311 6.40798L26.7824 6.32479L27.5401 6.4112C28.0705 6.47168 28.3696 6.52443 28.4373 6.56944C28.5981 6.66234 28.6625 6.78153 28.6305 6.927C28.6065 7.03611 28.3877 7.20689 27.9741 7.43934C24.744 9.17739 22.3733 11.8337 20.8621 15.4081C19.7025 18.0907 19.0965 20.8457 19.0441 23.6731C18.9605 27.4663 20.0964 30.5411 22.4518 32.8975C22.6006 33.045 22.7009 33.1776 22.7526 33.2953C22.8894 33.4973 22.7903 33.6538 22.4552 33.7647C22.3714 33.7924 22.0644 33.776 21.534 33.7156L20.7763 33.6291L20.573 33.4941C20.4162 33.383 20.2275 33.2404 20.007 33.0661C18.0685 31.5215 16.6293 29.7077 15.6895 27.6245C14.2188 24.3065 14.1374 20.7927 15.4452 17.0832C16.4441 14.3078 18.0761 11.9494 20.3413 10.0081C21.8776 8.67341 23.7002 7.56708 25.8091 6.68913C26.0937 6.57246 26.3343 6.47874 26.5311 6.40798Z"
    fill="url(#paint1_linear_28_14)"
    shape-rendering="crispEdges"
  />
  <path
    d="M29.1116 2.00204C29.1913 1.99249 29.4838 2.01652 29.9889 2.07412L30.7466 2.16053L30.9499 2.29556C31.1067 2.40665 31.2953 2.54933 31.5159 2.72361C33.1448 4.02785 34.4034 5.48558 35.2917 7.09681C37.063 10.2255 37.4568 13.6724 36.4733 17.4376C35.719 20.2782 34.2796 22.7611 32.1552 24.8862C30.3674 26.6583 28.2202 28.0632 25.7137 29.1009C25.4292 29.2175 25.1885 29.3113 24.9917 29.382L24.7404 29.4652L23.9827 29.3788C23.4018 29.3126 23.0582 29.2268 22.952 29.1214C22.8709 29.019 22.8717 28.8979 22.9542 28.7582C22.9955 28.6883 23.179 28.5601 23.5048 28.3736C25.0089 27.5385 26.2844 26.5655 27.3313 25.4546C28.9356 23.8107 30.1599 21.8346 31.0042 19.5262C31.8338 17.4025 32.3119 15.2294 32.4383 13.0069C32.7627 8.9428 31.6509 5.58178 29.103 2.92379C28.8732 2.67389 28.7536 2.51113 28.7444 2.43551C28.6914 2.20577 28.8138 2.06128 29.1116 2.00204Z"
    fill="url(#paint2_linear_28_14)"
    shape-rendering="crispEdges"
  />
</svg>
