<svg width="230" height="56" viewBox="0 0 230 56" fill="none" xmlns="http://www.w3.org/2000/svg">
<path fill-rule="evenodd" clip-rule="evenodd" d="M102.426 17.4847C104.388 17.4847 106.032 17.9747 107.357 18.9544C108.683 19.9342 109.618 21.3232 110.165 23.1211C110.711 24.919 110.782 27.0403 110.377 29.4847C109.973 31.9493 109.199 34.0858 108.056 35.8939C106.913 37.6918 105.516 39.0859 103.867 40.0758C102.219 41.0556 100.423 41.5456 98.4805 41.5456C96.9834 41.5455 95.8249 41.298 95.0056 40.803C94.1862 40.298 93.5894 39.7271 93.2151 39.0908C92.8743 38.5022 92.6048 38.0056 92.4066 37.6012C92.3718 37.5302 92.2996 37.4847 92.2205 37.4847C92.1202 37.4847 92.0346 37.5572 92.018 37.6559L90.2165 48.3965C90.0818 49.1995 89.3856 49.7877 88.5701 49.7877H88.3439C87.3118 49.7877 86.5269 48.862 86.6975 47.8457L91.5097 19.179C91.6445 18.3761 92.3405 17.7878 93.1558 17.7878H93.3269C94.3099 17.7878 95.0586 18.6678 94.8996 19.6364L94.6447 21.1875C94.6191 21.3432 94.7396 21.4847 94.8976 21.4847C94.9755 21.4847 95.0491 21.4496 95.0981 21.3893C95.4142 21.0007 95.8335 20.5173 96.3562 19.9394C96.9328 19.3031 97.7067 18.7374 98.6777 18.2425C99.659 17.7375 100.908 17.4847 102.426 17.4847ZM101.455 20.6969C99.998 20.6969 98.7082 21.0657 97.5853 21.8031C96.4725 22.5303 95.552 23.5505 94.8236 24.8636C94.1054 26.1666 93.6046 27.6868 93.3214 29.4241C93.0381 31.1817 93.0381 32.7324 93.3214 34.0758C93.6148 35.4091 94.1965 36.4547 95.0665 37.2122C95.9466 37.9596 97.105 38.3333 98.5415 38.3333C100.039 38.3333 101.349 37.9392 102.472 37.1514C103.604 36.3534 104.535 35.2828 105.263 33.9394C106.002 32.5859 106.513 31.0807 106.796 29.4241C107.059 27.7878 107.049 26.3131 106.766 25C106.482 23.6768 105.906 22.6313 105.036 21.8636C104.166 21.0858 102.972 20.6969 101.455 20.6969Z" fill="#1C1C1C"/>
<path fill-rule="evenodd" clip-rule="evenodd" d="M55.9469 17.4847C57.1608 17.4847 58.3293 17.6868 59.4522 18.0908C60.5751 18.4948 61.5463 19.1515 62.3657 20.0605C63.1852 20.9595 63.7568 22.1515 64.0805 23.6364C64.4043 25.1212 64.3841 26.9494 64.0199 29.1211L64.002 29.2331C63.8724 30.0416 63.1737 30.6364 62.3537 30.6364H47.62C47.3695 30.6364 47.1348 30.5769 46.9275 30.4729C46.892 30.4552 46.8486 30.4761 46.8424 30.5153C46.539 32.4444 46.5845 33.9797 46.979 35.1211C47.3837 36.2625 48.0868 37.0858 49.0883 37.5908C50.0898 38.0857 51.3442 38.3333 52.8515 38.3333C53.8125 38.3333 54.6978 38.2021 55.5071 37.9394C56.3164 37.6667 57.0398 37.2625 57.6771 36.7272C57.9898 36.4595 58.2783 36.16 58.5423 35.8291C59.035 35.2116 59.8289 34.8578 60.587 35.082L60.6936 35.1136C61.6758 35.4042 62.1719 36.5128 61.5514 37.3265C61.1609 37.8384 60.7141 38.3155 60.2111 38.7575C59.2096 39.6363 58.036 40.3231 56.6906 40.818C55.3553 41.3028 53.8936 41.5455 52.3054 41.5456C50.0697 41.5456 48.2232 41.0504 46.7665 40.0605C45.3098 39.0606 44.2933 37.6667 43.7166 35.8789C43.14 34.0809 43.0489 31.9899 43.4434 29.6061C43.838 27.2223 44.6218 25.1212 45.7953 23.3031C46.9688 21.4748 48.4307 20.0505 50.1808 19.0303C51.9308 18 53.8529 17.4847 55.9469 17.4847ZM55.4009 20.6969C54.0554 20.6969 52.8008 21.0605 51.6374 21.7878C50.4741 22.5049 49.5031 23.4143 48.7242 24.5153C48.0759 25.4232 47.6312 26.3452 47.3894 27.2811C47.3537 27.4194 47.4771 27.5456 47.62 27.5456H59.221C60.0307 27.5455 60.747 26.9643 60.7585 26.1559C60.7694 25.3908 60.6627 24.6822 60.4387 24.0303C60.0947 23 59.4928 22.1868 58.6329 21.5908C57.7832 20.9949 56.7058 20.6969 55.4009 20.6969Z" fill="#1C1C1C"/>
<path fill-rule="evenodd" clip-rule="evenodd" d="M127.262 17.4847C128.476 17.4847 129.645 17.6868 130.768 18.0908C131.89 18.4948 132.862 19.1515 133.681 20.0605C134.501 20.9595 135.072 22.1515 135.396 23.6364C135.72 25.1212 135.699 26.9494 135.335 29.1211L135.317 29.2331C135.188 30.0416 134.489 30.6364 133.669 30.6364H118.936C118.685 30.6364 118.45 30.577 118.243 30.4729C118.207 30.4552 118.164 30.4761 118.158 30.5153C117.854 32.4444 117.9 33.9797 118.294 35.1211C118.699 36.2625 119.402 37.0858 120.404 37.5908C121.405 38.0858 122.66 38.3333 124.167 38.3333C125.128 38.3333 126.013 38.2021 126.823 37.9394C127.632 37.6667 128.355 37.2625 128.992 36.7272C129.305 36.4595 129.594 36.16 129.858 35.8291C130.35 35.2116 131.144 34.8578 131.902 35.082L132.009 35.1136C132.991 35.4042 133.487 36.5128 132.867 37.3265C132.476 37.8384 132.03 38.3155 131.527 38.7575C130.525 39.6363 129.351 40.3231 128.006 40.818C126.671 41.3028 125.209 41.5455 123.621 41.5456C121.385 41.5456 119.539 41.0504 118.082 40.0605C116.625 39.0606 115.609 37.6667 115.032 35.8789C114.455 34.0809 114.364 31.9899 114.759 29.6061C115.153 27.2223 115.938 25.1212 117.111 23.3031C118.284 21.4748 119.746 20.0505 121.496 19.0303C123.246 18 125.168 17.4847 127.262 17.4847ZM126.716 20.6969C125.371 20.6969 124.116 21.0605 122.953 21.7878C121.789 22.5049 120.819 23.4143 120.04 24.5153C119.391 25.4231 118.947 26.345 118.705 27.2808C118.669 27.4192 118.793 27.5456 118.936 27.5456H130.536C131.346 27.5455 132.062 26.9643 132.074 26.1559C132.085 25.3908 131.978 24.6822 131.754 24.0303C131.41 23 130.808 22.1868 129.948 21.5908C129.099 20.9949 128.021 20.6969 126.716 20.6969Z" fill="#1C1C1C"/>
<path d="M41.5395 10.0303C42.569 10.0303 43.3531 10.9517 43.1869 11.9661C43.0548 12.772 42.3574 13.3636 41.5395 13.3636H29.4997C28.6843 13.3636 27.9881 13.9519 27.8533 14.7549L26.6529 21.9062C26.4823 22.9226 27.2669 23.8486 28.299 23.8486H37.837C38.8665 23.8486 39.6505 24.7698 39.4844 25.7842C39.3523 26.59 38.6549 27.182 37.837 27.182H27.1954C26.3791 27.182 25.6824 27.7714 25.5487 28.5755L23.7058 39.6667C23.5722 40.4708 22.8755 41.0605 22.0591 41.0605H21.68C20.649 41.0605 19.8645 40.1366 20.0333 39.1211L24.6382 11.4242C24.7719 10.6201 25.4686 10.0303 26.2849 10.0303H41.5395Z" fill="#1C1C1C"/>
<path d="M74.3192 10.0303C75.3502 10.0304 76.1344 10.9545 75.9656 11.9701L71.3607 39.667C71.227 40.4711 70.5303 41.0605 69.714 41.0605H69.5168C68.4859 41.0604 67.7016 40.1366 67.8704 39.1211L72.4753 11.4242C72.609 10.62 73.3056 10.0303 74.122 10.0303H74.3192Z" fill="#1C1C1C"/>
<path d="M83.1834 17.7878C84.2149 17.7878 84.9993 18.7127 84.8298 19.7285L81.5016 39.668C81.3674 40.4716 80.6711 41.0605 79.8552 41.0605H79.6583C78.6269 41.0605 77.8424 40.1356 78.0119 39.1198L81.3402 19.1807C81.4743 18.377 82.1706 17.7878 82.9865 17.7878H83.1834Z" fill="#1C1C1C"/>
<path fill-rule="evenodd" clip-rule="evenodd" d="M155.009 10.0303C157.437 10.0303 159.359 10.4393 160.775 11.2575C162.201 12.0757 163.167 13.2021 163.673 14.6364C164.189 16.0707 164.295 17.7072 163.992 19.5456C163.688 21.3637 163.041 22.9798 162.05 24.3939C161.068 25.808 159.733 26.9191 158.044 27.7272C157.931 27.7812 157.817 27.8334 157.702 27.8838C157.177 28.1126 156.89 28.7047 157.095 29.2391L160.758 38.7985C161.176 39.8897 160.369 41.0605 159.199 41.0605H158.412C157.716 41.0605 157.093 40.6288 156.849 39.9775L152.877 29.3717C152.787 29.1294 152.572 28.9305 152.313 28.9355C152.181 28.9381 152.048 28.9394 151.913 28.9394H145.409C145.257 28.9394 145.114 29.0383 145.089 29.1887L143.344 39.6673C143.21 40.4712 142.514 41.0605 141.697 41.0605H141.318C140.287 41.0605 139.502 40.1366 139.671 39.1211L144.276 11.4242C144.41 10.6201 145.107 10.0303 145.923 10.0303H155.009ZM149.14 13.3636C148.323 13.3636 147.627 13.9529 147.493 14.7568L145.89 24.3813C145.788 24.9908 146.258 25.5456 146.876 25.5456H152.399C154.058 25.5456 155.433 25.3029 156.526 24.818C157.619 24.3332 158.468 23.6415 159.075 22.7425C159.682 21.8435 160.087 20.7778 160.289 19.5456C160.492 18.293 160.436 17.2069 160.123 16.2878C159.819 15.3585 159.197 14.6414 158.256 14.1364C157.325 13.6212 156.02 13.3636 154.341 13.3636H149.14Z" fill="#1C1C1C"/>
<path d="M191.484 10.0303C192.514 10.0303 193.298 10.9517 193.132 11.9661C193 12.772 192.302 13.3636 191.484 13.3636H184.545C183.729 13.3636 183.032 13.9529 182.898 14.7568L178.749 39.6673C178.616 40.4712 177.919 41.0605 177.103 41.0605H176.724C175.693 41.0605 174.908 40.1361 175.077 39.1204L179.044 15.3037C179.213 14.288 178.429 13.3636 177.397 13.3636H171.56C170.53 13.3636 169.746 12.4421 169.912 11.4277C170.044 10.6219 170.742 10.0303 171.56 10.0303H191.484Z" fill="#1C1C1C"/>
<path d="M84.4559 9C85.1538 9.00002 85.7506 9.23751 86.2463 9.71224C86.7521 10.187 87.0049 10.7575 87.0049 11.4242C87.0049 12.0908 86.7521 12.6616 86.2463 13.1364C85.7507 13.6111 85.1538 13.8486 84.4559 13.8486C83.7579 13.8486 83.1559 13.6111 82.6501 13.1364C82.1544 12.6616 81.9065 12.0908 81.9065 11.4242C81.9065 10.7575 82.1544 10.187 82.6501 9.71224C83.1559 9.23749 83.7578 9 84.4559 9Z" fill="#1C1C1C"/>
<g filter="url(#filter0_d_18_20)">
<path d="M10.0075 31.3333L10.9844 31.4294L11.9238 31.7139L12.7896 32.176L13.5484 32.7978L14.1711 33.5555L14.6339 34.4199L14.9188 35.3579L15.015 36.3333L14.9188 37.3088L14.6339 38.2467L14.1711 39.1112L13.5484 39.8688L12.7896 40.4907L11.9238 40.9527L10.9844 41.2372L10.0075 41.3333L9.0306 41.2372L8.09123 40.9527L7.22549 40.4907L6.46667 39.8688L5.84392 39.1112L5.38118 38.2467L5.09622 37.3088L5 36.3333L5.09622 35.3579L5.38118 34.4199L5.84392 33.5555L6.46667 32.7978L7.22549 32.176L8.09123 31.7139L9.0306 31.4294L10.0075 31.3333Z" fill="url(#paint0_linear_18_20)" shape-rendering="crispEdges"/>
</g>
<g filter="url(#filter1_d_18_20)">
<path d="M211.297 8.61196L211.674 8.48718L212.81 8.61679C213.606 8.70752 214.054 8.78664 214.156 8.85416C214.397 8.99351 214.494 9.17229 214.446 9.39051C214.41 9.55417 214.082 9.81034 213.461 10.159C208.616 12.7661 205.06 16.7505 202.793 22.1122C201.054 26.136 200.145 30.2685 200.066 34.5096C199.941 40.1995 201.645 44.8117 205.178 48.3463C205.401 48.5674 205.551 48.7663 205.629 48.943C205.834 49.246 205.685 49.4807 205.183 49.647C205.057 49.6886 204.597 49.6641 203.801 49.5733L202.664 49.4437L202.36 49.2412C202.124 49.0746 201.841 48.8605 201.51 48.5991C198.603 46.2822 196.444 43.5615 195.034 40.4368C192.828 35.4598 192.706 30.1891 194.668 24.6248C196.166 20.4617 198.614 16.9241 202.012 14.0122C204.316 12.0101 207.05 10.3506 210.214 9.0337C210.641 8.85869 211.002 8.71811 211.297 8.61196Z" fill="url(#paint1_linear_18_20)" shape-rendering="crispEdges"/>
<path d="M215.167 2.00305C215.287 1.98874 215.726 2.02478 216.483 2.11119L217.62 2.2408L217.925 2.44334C218.16 2.60997 218.443 2.824 218.774 3.08542C221.217 5.04177 223.105 7.22836 224.438 9.64521C227.094 14.3382 227.685 19.5086 226.21 25.1564C225.078 29.4173 222.919 33.1416 219.733 36.3294C217.051 38.9875 213.83 41.0948 210.071 42.6513C209.644 42.8263 209.283 42.9669 208.988 43.073L208.611 43.1978L207.474 43.0682C206.603 42.9688 206.087 42.8402 205.928 42.6822C205.806 42.5285 205.808 42.3469 205.931 42.1373C205.993 42.0325 206.268 41.8402 206.757 41.5604C209.013 40.3078 210.927 38.8483 212.497 37.1819C214.903 34.7161 216.74 31.7519 218.006 28.2892C219.251 25.1037 219.968 21.8441 220.157 18.5103C220.644 12.4142 218.976 7.37267 215.154 3.38569C214.81 3.01083 214.63 2.76669 214.617 2.65326C214.537 2.30865 214.721 2.09192 215.167 2.00305Z" fill="url(#paint2_linear_18_20)" shape-rendering="crispEdges"/>
</g>
<defs>
<filter id="filter0_d_18_20" x="0" y="29.3333" width="18.015" height="18" filterUnits="userSpaceOnUse" color-interpolation-filters="sRGB">
<feFlood flood-opacity="0" result="BackgroundImageFix"/>
<feColorMatrix in="SourceAlpha" type="matrix" values="0 0 0 0 0 0 0 0 0 0 0 0 0 0 0 0 0 0 127 0" result="hardAlpha"/>
<feOffset dx="-1" dy="2"/>
<feGaussianBlur stdDeviation="2"/>
<feComposite in2="hardAlpha" operator="out"/>
<feColorMatrix type="matrix" values="0 0 0 0 0.540972 0 0 0 0 0 0 0 0 0 0.854167 0 0 0 0.3 0"/>
<feBlend mode="normal" in2="BackgroundImageFix" result="effect1_dropShadow_18_20"/>
<feBlend mode="normal" in="SourceGraphic" in2="effect1_dropShadow_18_20" result="shape"/>
</filter>
<filter id="filter1_d_18_20" x="188.283" y="0" width="41.7173" height="55.6666" filterUnits="userSpaceOnUse" color-interpolation-filters="sRGB">
<feFlood flood-opacity="0" result="BackgroundImageFix"/>
<feColorMatrix in="SourceAlpha" type="matrix" values="0 0 0 0 0 0 0 0 0 0 0 0 0 0 0 0 0 0 127 0" result="hardAlpha"/>
<feOffset dx="-1" dy="2"/>
<feGaussianBlur stdDeviation="2"/>
<feComposite in2="hardAlpha" operator="out"/>
<feColorMatrix type="matrix" values="0 0 0 0 0.540972 0 0 0 0 0 0 0 0 0 0.854167 0 0 0 0.3 0"/>
<feBlend mode="normal" in2="BackgroundImageFix" result="effect1_dropShadow_18_20"/>
<feBlend mode="normal" in="SourceGraphic" in2="effect1_dropShadow_18_20" result="shape"/>
</filter>
<linearGradient id="paint0_linear_18_20" x1="0.460881" y1="49.7474" x2="22.1376" y2="19.9293" gradientUnits="userSpaceOnUse">
<stop offset="0.11478" stop-color="#0E1FD7"/>
<stop offset="0.671137" stop-color="#8A00DA" stop-opacity="0.84"/>
</linearGradient>
<linearGradient id="paint1_linear_18_20" x1="182.351" y1="57.8936" x2="257.621" y2="11.9746" gradientUnits="userSpaceOnUse">
<stop offset="0.11478" stop-color="#0E1FD7"/>
<stop offset="0.671137" stop-color="#8A00DA" stop-opacity="0.84"/>
</linearGradient>
<linearGradient id="paint2_linear_18_20" x1="182.351" y1="57.8936" x2="257.621" y2="11.9746" gradientUnits="userSpaceOnUse">
<stop offset="0.11478" stop-color="#0E1FD7"/>
<stop offset="0.671137" stop-color="#8A00DA" stop-opacity="0.84"/>
</linearGradient>
</defs>
</svg>
