<svg width="193" height="48" viewBox="0 0 193 48" fill="none" xmlns="http://www.w3.org/2000/svg">
<path fill-rule="evenodd" clip-rule="evenodd" d="M86.1882 14.9039C87.8236 14.9039 89.1935 15.3122 90.2979 16.1287C91.4022 16.9452 92.182 18.1026 92.6373 19.6009C93.0925 21.0992 93.1516 22.8669 92.8144 24.9039C92.4772 26.9577 91.8324 28.7382 90.8798 30.2449C89.9272 31.7432 88.7637 32.9049 87.3896 33.7299C86.0155 34.5463 84.519 34.9546 82.9004 34.9546C81.6528 34.9546 80.6875 34.7483 80.0046 34.3359C79.3218 33.915 78.8245 33.4393 78.5126 32.909C78.2286 32.4185 78.004 32.0047 77.8388 31.6677C77.8098 31.6085 77.7497 31.5706 77.6837 31.5706C77.6002 31.5706 77.5288 31.631 77.515 31.7133L76.0137 40.6637C75.9015 41.3329 75.3213 41.8231 74.6418 41.8231H74.4532C73.5932 41.8231 72.9391 41.0517 73.0813 40.2047L77.0915 16.3159C77.2038 15.6468 77.7837 15.1565 78.4631 15.1565H78.6058C79.4249 15.1565 80.0489 15.8899 79.9163 16.697L79.7039 17.9896C79.6826 18.1194 79.783 18.2372 79.9147 18.2372C79.9796 18.2372 80.0409 18.208 80.0818 18.1578C80.3451 17.8339 80.6946 17.4311 81.1302 16.9495C81.6107 16.4193 82.2555 15.9479 83.0648 15.5354C83.8825 15.1146 84.9237 14.9039 86.1882 14.9039ZM85.3789 17.5808C84.165 17.5808 83.0901 17.8881 82.1544 18.5025C81.2271 19.1086 80.46 19.9588 79.853 21.053C79.2545 22.1388 78.8372 23.4057 78.6012 24.8535C78.3651 26.3181 78.3651 27.6103 78.6012 28.7299C78.8456 29.8409 79.3305 30.7122 80.0554 31.3435C80.7888 31.9664 81.7542 32.2778 82.9512 32.2778C84.1988 32.2777 85.2905 31.9493 86.2263 31.2928C87.1704 30.6278 87.9459 29.7357 88.5529 28.6162C89.1683 27.4883 89.594 26.2339 89.83 24.8535C90.0492 23.4898 90.0408 22.2609 89.8048 21.1667C89.5687 20.064 89.0883 19.1927 88.3633 18.553C87.6383 17.9049 86.6434 17.5808 85.3789 17.5808Z" fill="#1C1C1C"/>
<path fill-rule="evenodd" clip-rule="evenodd" d="M47.4558 14.9039C48.4673 14.9039 49.4411 15.0723 50.3768 15.409C51.3125 15.7457 52.1219 16.2929 52.8048 17.0505C53.4876 17.7996 53.964 18.7929 54.2338 20.0303C54.5035 21.2677 54.4867 22.7912 54.1833 24.6009L54.1683 24.6942C54.0603 25.368 53.4781 25.8636 52.7947 25.8637H40.5166C40.3079 25.8636 40.1124 25.8141 39.9396 25.7274C39.91 25.7126 39.8738 25.7301 39.8687 25.7627C39.6158 27.3704 39.6538 28.6498 39.9825 29.6009C40.3197 30.5521 40.9057 31.2381 41.7403 31.659C42.5748 32.0715 43.6201 32.2778 44.8762 32.2778C45.6771 32.2778 46.4149 32.1684 47.0893 31.9495C47.7637 31.7223 48.3665 31.3854 48.8975 30.9393C49.1582 30.7163 49.3985 30.4667 49.6186 30.1909C50.0292 29.6763 50.6907 29.3815 51.3225 29.5683L51.4114 29.5947C52.2298 29.8368 52.6433 30.7606 52.1261 31.4387C51.8008 31.8653 51.4285 32.2629 51.0093 32.6312C50.1747 33.3635 49.1967 33.9359 48.0755 34.3483C46.9627 34.7524 45.7446 34.9546 44.4212 34.9546C42.5581 34.9546 41.0193 34.542 39.8054 33.7171C38.5915 32.8838 37.7444 31.7222 37.2639 30.2324C36.7834 28.7341 36.7074 26.9916 37.0362 25.0051C37.365 23.0186 38.0182 21.2677 38.9961 19.7525C39.974 18.229 41.1922 17.0421 42.6506 16.1919C44.109 15.3333 45.7108 14.9039 47.4558 14.9039ZM47.0007 17.5808C45.8795 17.5808 44.834 17.8837 43.8645 18.4898C42.895 19.0874 42.0859 19.8453 41.4368 20.7627C40.8966 21.5194 40.526 22.2877 40.3245 23.0676C40.2948 23.1828 40.3976 23.288 40.5166 23.288H50.1842C50.8589 23.2879 51.4558 22.8036 51.4654 22.1299C51.4745 21.4923 51.3856 20.9018 51.1989 20.3586C50.9123 19.5 50.4107 18.8223 49.6941 18.3257C48.986 17.8291 48.0882 17.5808 47.0007 17.5808Z" fill="#1C1C1C"/>
<path fill-rule="evenodd" clip-rule="evenodd" d="M106.885 14.9039C107.897 14.9039 108.871 15.0723 109.806 15.409C110.742 15.7457 111.551 16.2929 112.234 17.0505C112.917 17.7996 113.394 18.7929 113.663 20.0303C113.933 21.2677 113.916 22.7912 113.613 24.6009L113.598 24.6942C113.49 25.368 112.908 25.8637 112.224 25.8637H99.9464C99.7376 25.8637 99.5419 25.8141 99.3691 25.7274C99.3395 25.7126 99.3033 25.7301 99.2982 25.7627C99.0453 27.3704 99.0833 28.6498 99.412 29.6009C99.7492 30.5521 100.335 31.2381 101.17 31.659C102.004 32.0715 103.05 32.2778 104.306 32.2778C105.107 32.2778 105.844 32.1684 106.519 31.9495C107.193 31.7223 107.796 31.3854 108.327 30.9393C108.588 30.7163 108.828 30.4667 109.048 30.1909C109.459 29.6763 110.12 29.3815 110.752 29.5683L110.841 29.5947C111.659 29.8368 112.073 30.7606 111.556 31.4387C111.23 31.8653 110.858 32.2629 110.439 32.6312C109.604 33.3635 108.626 33.9359 107.505 34.3483C106.392 34.7524 105.174 34.9546 103.851 34.9546C101.988 34.9546 100.449 34.542 99.2349 33.7171C98.021 32.8838 97.1739 31.7222 96.6934 30.2324C96.2129 28.7341 96.1369 26.9916 96.4657 25.0051C96.7945 23.0186 97.448 21.2677 98.4258 19.7525C99.4037 18.229 100.622 17.042 102.08 16.1919C103.539 15.3333 105.14 14.9039 106.885 14.9039ZM106.43 17.5808C105.309 17.5808 104.263 17.8837 103.294 18.4898C102.325 19.0874 101.515 19.8452 100.866 20.7627C100.326 21.5193 99.9556 22.2875 99.7541 23.0673C99.7243 23.1827 99.8273 23.288 99.9464 23.288H109.614C110.288 23.2879 110.885 22.8036 110.895 22.1299C110.904 21.4923 110.815 20.9018 110.628 20.3586C110.342 19.5 109.84 18.8223 109.124 18.3257C108.415 17.8291 107.518 17.5808 106.43 17.5808Z" fill="#1C1C1C"/>
<path d="M35.4496 8.69189C36.3075 8.69189 36.9609 9.45977 36.8224 10.3051C36.7123 10.9767 36.1311 11.4697 35.4496 11.4697H25.4164C24.7369 11.4697 24.1568 11.96 24.0444 12.6291L23.0441 18.5885C22.9019 19.4355 23.5558 20.2071 24.4158 20.2072H32.3642C33.2221 20.2072 33.8754 20.9748 33.737 21.8201C33.6269 22.4917 33.0457 22.985 32.3642 22.985H23.4962C22.8159 22.985 22.2354 23.4762 22.124 24.1463L20.5882 33.3889C20.4768 34.059 19.8962 34.5504 19.2159 34.5504H18.9C18.0408 34.5504 17.3871 33.7805 17.5278 32.9342L21.3652 9.85346C21.4766 9.18338 22.0571 8.69192 22.7374 8.69189H35.4496Z" fill="#1C1C1C"/>
<path d="M62.766 8.69189C63.6251 8.69197 64.2787 9.46211 64.138 10.3084L60.3006 33.3891C60.1891 34.0592 59.6086 34.5504 58.9283 34.5504H58.764C57.9049 34.5504 57.2514 33.7805 57.392 32.9342L61.2294 9.85346C61.3408 9.18336 61.9214 8.69189 62.6017 8.69189H62.766Z" fill="#1C1C1C"/>
<path d="M70.1529 15.1565C71.0124 15.1565 71.6661 15.9272 71.5248 16.7738L68.7513 33.39C68.6395 34.0596 68.0593 34.5504 67.3793 34.5504H67.2152C66.3558 34.5504 65.702 33.7797 65.8433 32.9331L68.6168 16.3172C68.7286 15.6475 69.3089 15.1565 69.9888 15.1565H70.1529Z" fill="#1C1C1C"/>
<path fill-rule="evenodd" clip-rule="evenodd" d="M130.007 8.69189C132.03 8.6919 133.632 9.03278 134.812 9.71457C136.001 10.3964 136.806 11.335 137.228 12.5303C137.658 13.7256 137.746 15.0893 137.493 16.6213C137.24 18.1364 136.701 19.4831 135.875 20.6616C135.057 21.84 133.944 22.7659 132.536 23.4393C132.495 23.4592 132.453 23.4788 132.412 23.4981C131.892 23.7376 131.604 24.3286 131.808 24.863L134.798 32.6654C135.147 33.5747 134.474 34.5504 133.499 34.5504H132.844C132.263 34.5504 131.744 34.1906 131.541 33.6479L128.231 24.8098C128.155 24.6078 127.977 24.4421 127.761 24.4463C127.651 24.4484 127.54 24.4495 127.428 24.4495H122.008C121.881 24.4495 121.762 24.532 121.741 24.6572L120.287 33.3894C120.175 34.0593 119.595 34.5504 118.915 34.5504H118.598C117.739 34.5504 117.085 33.7805 117.226 32.9342L121.064 9.85346C121.175 9.18339 121.755 8.69195 122.436 8.69189H130.007ZM125.116 11.4697C124.436 11.4697 123.856 11.9608 123.744 12.6307L122.441 20.457C122.339 21.0665 122.809 21.6213 123.427 21.6213H127.832C129.215 21.6213 130.361 21.4191 131.272 21.015C132.182 20.611 132.89 20.0346 133.396 19.2854C133.902 18.5363 134.239 17.6482 134.408 16.6213C134.576 15.5775 134.53 14.6725 134.269 13.9065C134.016 13.1321 133.497 12.5345 132.713 12.1137C131.938 11.6844 130.85 11.4697 129.451 11.4697H125.116Z" fill="#1C1C1C"/>
<path d="M160.404 8.69189C161.262 8.69189 161.915 9.45977 161.776 10.3051C161.666 10.9767 161.085 11.4697 160.404 11.4697H154.621C153.941 11.4697 153.36 11.9608 153.249 12.6307L149.791 33.3894C149.68 34.0593 149.099 34.5504 148.419 34.5504H148.103C147.244 34.5504 146.59 33.7801 146.731 32.9337L150.037 13.0864C150.178 12.24 149.524 11.4697 148.665 11.4697H143.8C142.942 11.4697 142.288 10.7018 142.427 9.85644C142.537 9.18493 143.118 8.69189 143.8 8.69189H160.404Z" fill="#1C1C1C"/>
<path d="M71.2132 7.83333C71.7949 7.83335 72.2922 8.03126 72.7053 8.42687C73.1267 8.82246 73.3374 9.29795 73.3375 9.85346C73.3375 10.409 73.1268 10.8847 72.7053 11.2803C72.2922 11.6759 71.7949 11.8738 71.2132 11.8739C70.6316 11.8739 70.1299 11.6759 69.7084 11.2803C69.2953 10.8847 69.0887 10.409 69.0887 9.85346C69.0887 9.29794 69.2954 8.82247 69.7084 8.42687C70.1299 8.03124 70.6315 7.83333 71.2132 7.83333Z" fill="#1C1C1C"/>
<g filter="url(#filter0_d_22_15)">
<path d="M9.17293 26.4444L9.98703 26.5245L10.7698 26.7616L11.4913 27.1466L12.1236 27.6648L12.6426 28.2962L13.0282 29.0166L13.2657 29.7982L13.3459 30.6111L13.2657 31.424L13.0282 32.2056L12.6426 32.926L12.1236 33.5574L11.4913 34.0755L10.7698 34.4606L9.98703 34.6977L9.17293 34.7778L8.35884 34.6977L7.57602 34.4606L6.85458 34.0755L6.22222 33.5574L5.70327 32.926L5.31765 32.2056L5.08018 31.424L5 30.6111L5.08018 29.7982L5.31765 29.0166L5.70327 28.2962L6.22222 27.6648L6.85458 27.1466L7.57602 26.7616L8.35884 26.5245L9.17293 26.4444Z" fill="url(#paint0_linear_22_15)" shape-rendering="crispEdges"/>
</g>
<g filter="url(#filter1_d_22_15)">
<path d="M176.914 7.50997L177.228 7.40599L178.175 7.514C178.838 7.5896 179.212 7.65554 179.297 7.7118C179.498 7.82792 179.578 7.97691 179.538 8.15876C179.508 8.29514 179.235 8.50862 178.718 8.79918C174.68 10.9717 171.717 14.2921 169.828 18.7602C168.378 22.1133 167.621 25.5571 167.555 29.0914C167.451 33.8329 168.87 37.6764 171.815 40.6219C172.001 40.8062 172.126 40.9719 172.191 41.1191C172.362 41.3716 172.238 41.5672 171.819 41.7059C171.714 41.7405 171.33 41.7201 170.667 41.6444L169.72 41.5364L169.466 41.3677C169.27 41.2288 169.034 41.0504 168.759 40.8326C166.336 38.9019 164.537 36.6346 163.362 34.0307C161.523 29.8831 161.422 25.4909 163.057 20.854C164.305 17.3847 166.345 14.4368 169.177 12.0102C171.097 10.3418 173.375 8.95885 176.011 7.86142C176.367 7.71557 176.668 7.59842 176.914 7.50997Z" fill="url(#paint1_linear_22_15)" shape-rendering="crispEdges"/>
<path d="M180.139 2.00254C180.239 1.99061 180.605 2.02065 181.236 2.09265L182.183 2.20066L182.437 2.36945C182.633 2.50831 182.869 2.68667 183.145 2.90452C185.181 4.53481 186.754 6.35697 187.865 8.37101C190.079 12.2818 190.571 16.5905 189.342 21.297C188.399 24.8478 186.6 27.9514 183.944 30.6078C181.709 32.8229 179.025 34.579 175.892 35.8761C175.536 36.0219 175.236 36.1391 174.99 36.2275L174.675 36.3315L173.728 36.2235C173.002 36.1407 172.573 36.0335 172.44 35.9018C172.339 35.7738 172.34 35.6224 172.443 35.4478C172.494 35.3604 172.724 35.2002 173.131 34.967C175.011 33.9231 176.605 32.7069 177.914 31.3182C179.919 29.2634 181.45 26.7932 182.505 23.9077C183.542 21.2531 184.14 18.5367 184.298 15.7586C184.703 10.6785 183.314 6.47723 180.129 3.15474C179.841 2.84236 179.692 2.63891 179.68 2.54438C179.614 2.25721 179.767 2.0766 180.139 2.00254Z" fill="url(#paint2_linear_22_15)" shape-rendering="crispEdges"/>
</g>
<defs>
<filter id="filter0_d_22_15" x="0" y="24.4444" width="16.3459" height="16.3333" filterUnits="userSpaceOnUse" color-interpolation-filters="sRGB">
<feFlood flood-opacity="0" result="BackgroundImageFix"/>
<feColorMatrix in="SourceAlpha" type="matrix" values="0 0 0 0 0 0 0 0 0 0 0 0 0 0 0 0 0 0 127 0" result="hardAlpha"/>
<feOffset dx="-1" dy="2"/>
<feGaussianBlur stdDeviation="2"/>
<feComposite in2="hardAlpha" operator="out"/>
<feColorMatrix type="matrix" values="0 0 0 0 0.540972 0 0 0 0 0 0 0 0 0 0.854167 0 0 0 0.3 0"/>
<feBlend mode="normal" in2="BackgroundImageFix" result="effect1_dropShadow_22_15"/>
<feBlend mode="normal" in="SourceGraphic" in2="effect1_dropShadow_22_15" result="shape"/>
</filter>
<filter id="filter1_d_22_15" x="156.902" y="0" width="36.0977" height="47.7222" filterUnits="userSpaceOnUse" color-interpolation-filters="sRGB">
<feFlood flood-opacity="0" result="BackgroundImageFix"/>
<feColorMatrix in="SourceAlpha" type="matrix" values="0 0 0 0 0 0 0 0 0 0 0 0 0 0 0 0 0 0 127 0" result="hardAlpha"/>
<feOffset dx="-1" dy="2"/>
<feGaussianBlur stdDeviation="2"/>
<feComposite in2="hardAlpha" operator="out"/>
<feColorMatrix type="matrix" values="0 0 0 0 0.540972 0 0 0 0 0 0 0 0 0 0.854167 0 0 0 0.3 0"/>
<feBlend mode="normal" in2="BackgroundImageFix" result="effect1_dropShadow_22_15"/>
<feBlend mode="normal" in="SourceGraphic" in2="effect1_dropShadow_22_15" result="shape"/>
</filter>
<linearGradient id="paint0_linear_22_15" x1="1.2174" y1="41.7895" x2="19.2813" y2="16.9411" gradientUnits="userSpaceOnUse">
<stop offset="0.11478" stop-color="#0E1FD7"/>
<stop offset="0.671137" stop-color="#8A00DA" stop-opacity="0.84"/>
</linearGradient>
<linearGradient id="paint1_linear_22_15" x1="152.792" y1="48.578" x2="215.517" y2="10.3122" gradientUnits="userSpaceOnUse">
<stop offset="0.11478" stop-color="#0E1FD7"/>
<stop offset="0.671137" stop-color="#8A00DA" stop-opacity="0.84"/>
</linearGradient>
<linearGradient id="paint2_linear_22_15" x1="152.792" y1="48.578" x2="215.517" y2="10.3122" gradientUnits="userSpaceOnUse">
<stop offset="0.11478" stop-color="#0E1FD7"/>
<stop offset="0.671137" stop-color="#8A00DA" stop-opacity="0.84"/>
</linearGradient>
</defs>
</svg>
