<svg width="138" height="36" viewBox="0 0 138 36" fill="none" xmlns="http://www.w3.org/2000/svg">
<path fill-rule="evenodd" clip-rule="evenodd" d="M62.0512 11.0327C63.2004 11.0327 64.163 11.3186 64.939 11.8901C65.7151 12.4616 66.263 13.2719 66.5829 14.3206C66.9028 15.3694 66.9444 16.6068 66.7074 18.0327C66.4705 19.4704 66.0173 20.7167 65.348 21.7714C64.6786 22.8202 63.861 23.6335 62.8954 24.2109C61.9298 24.7824 60.8782 25.0682 59.7408 25.0682C58.8641 25.0682 58.1858 24.9238 57.706 24.6351C57.2261 24.3405 56.8767 24.0075 56.6575 23.6363C56.4579 23.293 56.3001 23.0033 56.184 22.7674C56.1636 22.726 56.1214 22.6994 56.075 22.6994C56.0163 22.6994 55.9662 22.7417 55.9565 22.7993L54.9015 29.0646C54.8227 29.533 54.415 29.8762 53.9375 29.8762H53.805C53.2006 29.8762 52.741 29.3362 52.8409 28.7433L55.6589 12.0211C55.7378 11.5527 56.1453 11.2096 56.6228 11.2095H56.723C57.2986 11.2095 57.737 11.7229 57.6439 12.2879L57.4946 13.1927C57.4796 13.2836 57.5502 13.3661 57.6428 13.3661C57.6883 13.3661 57.7314 13.3456 57.7602 13.3104C57.9452 13.0837 58.1908 12.8018 58.4969 12.4647C58.8345 12.0935 59.2877 11.7635 59.8563 11.4748C60.4309 11.1802 61.1626 11.0327 62.0512 11.0327ZM61.4825 12.9065C60.6295 12.9066 59.8741 13.1217 59.2166 13.5518C58.565 13.976 58.0259 14.5711 57.5994 15.3371C57.1788 16.0972 56.8856 16.984 56.7197 17.9974C56.5539 19.0227 56.5539 19.9272 56.7197 20.7109C56.8915 21.4887 57.2322 22.0986 57.7417 22.5405C58.257 22.9764 58.9354 23.1944 59.7765 23.1944C60.6532 23.1944 61.4204 22.9645 62.0779 22.505C62.7414 22.0395 63.2863 21.415 63.7128 20.6313C64.1453 19.8418 64.4444 18.9637 64.6103 17.9974C64.7643 17.0429 64.7584 16.1826 64.5925 15.4167C64.4267 14.6448 64.089 14.0349 63.5796 13.5871C63.0701 13.1334 62.3711 12.9065 61.4825 12.9065Z" fill="#1C1C1C"/>
<path fill-rule="evenodd" clip-rule="evenodd" d="M34.8338 11.0327C35.5446 11.0327 36.2289 11.1506 36.8864 11.3863C37.544 11.622 38.1127 12.005 38.5926 12.5353C39.0724 13.0597 39.4072 13.7551 39.5967 14.6212C39.7863 15.4874 39.7745 16.5538 39.5612 17.8206L39.5507 17.886C39.4748 18.3576 39.0657 18.7046 38.5855 18.7046H29.9576C29.8109 18.7045 29.6735 18.6699 29.552 18.6091C29.5313 18.5988 29.5059 18.6111 29.5023 18.6339C29.3246 19.7593 29.3513 20.6548 29.5823 21.3206C29.8193 21.9865 30.231 22.4667 30.8175 22.7613C31.4039 23.05 32.1385 23.1944 33.0211 23.1944C33.5839 23.1944 34.1023 23.1179 34.5763 22.9647C35.0501 22.8056 35.4737 22.5698 35.8469 22.2575C36.0301 22.1014 36.199 21.9267 36.3536 21.7336C36.6421 21.3734 37.107 21.167 37.551 21.2978L37.6134 21.3163C38.1885 21.4858 38.479 22.1324 38.1157 22.6071C37.887 22.9057 37.6254 23.184 37.3308 23.4419C36.7444 23.9545 36.0571 24.3551 35.2692 24.6438C34.4873 24.9267 33.6314 25.0682 32.7014 25.0682C31.3922 25.0682 30.3109 24.7794 29.4578 24.202C28.6049 23.6187 28.0096 22.8055 27.6719 21.7627C27.3343 20.7139 27.2809 19.4941 27.5119 18.1036C27.743 16.713 28.202 15.4874 28.8891 14.4268C29.5763 13.3603 30.4324 12.5294 31.4572 11.9343C32.482 11.3333 33.6076 11.0328 34.8338 11.0327ZM34.514 12.9065C33.7261 12.9065 32.9914 13.1186 32.3102 13.5429C31.629 13.9612 31.0604 14.4917 30.6042 15.1339C30.2248 15.6633 29.9644 16.201 29.8228 16.7467C29.8018 16.8276 29.874 16.9016 29.9576 16.9016H36.7511C37.2252 16.9016 37.6446 16.5625 37.6514 16.091C37.6577 15.6446 37.5953 15.2313 37.4641 14.851C37.2627 14.25 36.9102 13.7756 36.4067 13.428C35.9091 13.0803 35.2782 12.9066 34.514 12.9065Z" fill="#1C1C1C"/>
<path fill-rule="evenodd" clip-rule="evenodd" d="M76.5951 11.0327C77.3059 11.0327 77.9902 11.1506 78.6477 11.3863C79.3052 11.622 79.874 12.005 80.3538 12.5353C80.8337 13.0597 81.1684 13.7551 81.358 14.6212C81.5476 15.4874 81.5357 16.5538 81.3225 17.8206L81.312 17.886C81.2361 18.3576 80.827 18.7046 80.3468 18.7046H71.7191C71.5723 18.7046 71.4348 18.6699 71.3133 18.6091C71.2926 18.5988 71.2672 18.6111 71.2636 18.6339C71.0859 19.7593 71.1126 20.6548 71.3436 21.3206C71.5805 21.9865 71.9923 22.4667 72.5788 22.7613C73.1652 23.05 73.8997 23.1944 74.7824 23.1944C75.3452 23.1944 75.8636 23.1179 76.3375 22.9647C76.8114 22.8056 77.235 22.5698 77.6082 22.2575C77.7913 22.1014 77.9603 21.9267 78.1149 21.7336C78.4034 21.3734 78.8683 21.167 79.3122 21.2978L79.3747 21.3163C79.9498 21.4858 80.2403 22.1324 79.8769 22.6071C79.6483 22.9057 79.3867 23.184 79.0921 23.4419C78.5057 23.9545 77.8184 24.3551 77.0305 24.6438C76.2486 24.9267 75.3926 25.0682 74.4626 25.0682C73.1534 25.0682 72.0722 24.7794 71.2191 24.202C70.3661 23.6187 69.7708 22.8055 69.4332 21.7627C69.0955 20.7139 69.0422 19.4941 69.2732 18.1036C69.5042 16.713 69.9634 15.4874 70.6506 14.4268C71.3378 13.3603 72.1937 12.5294 73.2185 11.9343C74.2433 11.3333 75.3688 11.0328 76.5951 11.0327ZM76.2753 12.9065C75.4874 12.9065 74.7527 13.1186 74.0715 13.5429C73.3902 13.9612 72.8216 14.4917 72.3655 15.1339C71.9861 15.6633 71.7258 16.2008 71.5841 16.7465C71.5631 16.8275 71.6354 16.9016 71.7191 16.9016H78.5123C78.9864 16.9016 79.4059 16.5625 79.4127 16.091C79.419 15.6446 79.3566 15.2313 79.2254 14.851C79.024 14.25 78.6715 13.7756 78.1679 13.428C77.6703 13.0803 77.0394 12.9066 76.2753 12.9065Z" fill="#1C1C1C"/>
<path d="M26.397 6.68433C26.9999 6.68433 27.459 7.22184 27.3617 7.81358C27.2843 8.28367 26.8759 8.62877 26.397 8.62877H19.3466C18.8692 8.62877 18.4615 8.97197 18.3826 9.44035L17.6797 13.612C17.5797 14.2048 18.0392 14.745 18.6435 14.745H24.2289C24.8317 14.745 25.2909 15.2824 25.1936 15.8741C25.1162 16.3442 24.7078 16.6895 24.2289 16.6895H17.9973C17.5193 16.6895 17.1113 17.0333 17.033 17.5024L15.9539 23.9722C15.8756 24.4413 15.4676 24.7853 14.9896 24.7853H14.7676C14.1638 24.7853 13.7044 24.2464 13.8033 23.654L16.4998 7.49742C16.5781 7.02836 16.9861 6.68435 17.4641 6.68433H26.397Z" fill="#1C1C1C"/>
<path d="M45.5923 6.68433C46.196 6.68438 46.6553 7.22348 46.5564 7.81586L43.8599 23.9724C43.7815 24.4414 43.3736 24.7853 42.8956 24.7853H42.7801C42.1764 24.7853 41.7172 24.2463 41.816 23.654L44.5126 7.49742C44.5909 7.02835 44.9988 6.68433 45.4768 6.68433H45.5923Z" fill="#1C1C1C"/>
<path d="M50.7831 11.2095C51.3871 11.2095 51.8465 11.749 51.7472 12.3416L49.7982 23.973C49.7197 24.4417 49.3119 24.7853 48.8341 24.7853H48.7188C48.1149 24.7853 47.6555 24.2458 47.7547 23.6532L49.7037 12.0221C49.7823 11.5533 50.19 11.2096 50.6678 11.2095H50.7831Z" fill="#1C1C1C"/>
<path fill-rule="evenodd" clip-rule="evenodd" d="M92.843 6.68433C94.2647 6.68433 95.3902 6.92294 96.2195 7.4002C97.0548 7.87747 97.6205 8.53453 97.9167 9.37123C98.2188 10.2079 98.2811 11.1625 98.1034 12.2349C97.9257 13.2955 97.5465 14.2382 96.966 15.0631C96.3914 15.888 95.6094 16.5362 94.6201 17.0075C94.2105 17.2039 93.9811 17.6724 94.1442 18.0964L96.2096 23.4658C96.4544 24.1023 95.9818 24.7853 95.2967 24.7853H94.836C94.4283 24.7853 94.0634 24.5335 93.9206 24.1536L91.5948 17.9668C91.5417 17.8255 91.4165 17.7094 91.2655 17.7124C91.1878 17.7139 91.1094 17.7147 91.0303 17.7147H87.2215C87.1322 17.7147 87.0489 17.7726 87.0341 17.8606L86.0123 23.9726C85.9339 24.4415 85.526 24.7853 85.048 24.7853H84.8258C84.2221 24.7853 83.7627 24.2464 83.8615 23.654L86.5583 7.49742C86.6366 7.02837 87.0444 6.68436 87.5224 6.68433H92.843ZM89.4061 8.62877C88.9281 8.62877 88.5202 8.97255 88.4418 9.44149L87.7012 13.8711C87.5939 14.5123 87.5403 14.8329 87.633 15.0828C87.7144 15.302 87.87 15.4859 88.0729 15.6023C88.3041 15.7349 88.6291 15.7349 89.2792 15.7349H91.3146C92.2861 15.7349 93.0917 15.5933 93.7314 15.3105C94.3712 15.0277 94.8689 14.6242 95.2243 14.0998C95.5798 13.5754 95.8168 12.9537 95.9353 12.2349C96.0537 11.5043 96.0212 10.8707 95.8375 10.3345C95.6598 9.79248 95.2954 9.37416 94.7446 9.07956C94.1996 8.77906 93.4353 8.62877 92.452 8.62877H89.4061Z" fill="#1C1C1C"/>
<path d="M114.203 6.68433C114.805 6.68433 115.265 7.22184 115.167 7.81358C115.09 8.28367 114.681 8.62877 114.203 8.62877H110.139C109.661 8.62877 109.253 8.97254 109.175 9.44149L106.745 23.9726C106.667 24.4415 106.259 24.7853 105.781 24.7853H105.559C104.955 24.7853 104.496 24.2461 104.595 23.6536L106.918 9.7605C107.017 9.168 106.557 8.62877 105.953 8.62877H102.535C101.932 8.62877 101.473 8.09125 101.57 7.49951C101.648 7.02945 102.056 6.68433 102.535 6.68433H114.203Z" fill="#1C1C1C"/>
<path d="M51.5282 6.08333C51.9369 6.08335 52.2864 6.22188 52.5767 6.49881C52.8728 6.77572 53.0209 7.10857 53.0209 7.49742C53.0209 7.88631 52.8729 8.21929 52.5767 8.49623C52.2864 8.77314 51.9369 8.91169 51.5282 8.9117C51.1195 8.9117 50.767 8.77314 50.4708 8.49623C50.1805 8.21929 50.0353 7.88631 50.0353 7.49742C50.0353 7.10856 50.1805 6.77573 50.4708 6.49881C50.767 6.22187 51.1195 6.08333 51.5282 6.08333Z" fill="#1C1C1C"/>
<g filter="url(#filter0_d_21_41)">
<path d="M7.93233 19.1111L8.5044 19.1671L9.05449 19.3331L9.56145 19.6026L10.0058 19.9654L10.3705 20.4074L10.6415 20.9116L10.8083 21.4588L10.8647 22.0278L10.8083 22.5968L10.6415 23.1439L10.3705 23.6482L10.0058 24.0902L9.56145 24.4529L9.05449 24.7224L8.5044 24.8884L7.93233 24.9444L7.36026 24.8884L6.81018 24.7224L6.30322 24.4529L5.85886 24.0902L5.49419 23.6482L5.22321 23.1439L5.05634 22.5968L5 22.0278L5.05634 21.4588L5.22321 20.9116L5.49419 20.4074L5.85886 19.9654L6.30322 19.6026L6.81018 19.3331L7.36026 19.1671L7.93233 19.1111Z" fill="url(#paint0_linear_21_41)" shape-rendering="crispEdges"/>
</g>
<g filter="url(#filter1_d_21_41)">
<path d="M125.804 5.85698L126.025 5.78419L126.691 5.8598C127.157 5.91272 127.419 5.95887 127.479 5.99826C127.62 6.07955 127.677 6.18384 127.648 6.31113C127.627 6.4066 127.435 6.55603 127.072 6.75942C124.235 8.28022 122.152 10.6044 120.825 13.7321C119.806 16.0793 119.274 18.4899 119.228 20.964C119.154 24.283 120.152 26.9735 122.221 29.0353C122.352 29.1643 122.44 29.2804 122.485 29.3834C122.606 29.5601 122.518 29.6971 122.224 29.7941C122.151 29.8184 121.881 29.804 121.415 29.7511L120.749 29.6755L120.571 29.5574C120.433 29.4602 120.267 29.3353 120.074 29.1828C118.371 27.8313 117.107 26.2442 116.281 24.4215C114.989 21.5182 114.918 18.4436 116.067 15.1978C116.944 12.7693 118.378 10.7057 120.367 9.00711C121.717 7.83923 123.318 6.8712 125.17 6.10299C125.42 6.0009 125.632 5.9189 125.804 5.85698Z" fill="url(#paint1_linear_21_41)" shape-rendering="crispEdges"/>
<path d="M128.071 2.00178C128.141 1.99343 128.398 2.01445 128.842 2.06486L129.507 2.14046L129.686 2.25862C129.823 2.35582 129.989 2.48067 130.183 2.63316C131.614 3.77436 132.719 5.04988 133.499 6.45971C135.055 9.19728 135.401 12.2133 134.537 15.5079C133.875 17.9934 132.61 20.166 130.744 22.0255C129.174 23.576 127.288 24.8053 125.086 25.7133C124.836 25.8153 124.625 25.8974 124.452 25.9593L124.231 26.0321L123.566 25.9565C123.056 25.8985 122.754 25.8234 122.661 25.7313C122.589 25.6416 122.59 25.5357 122.662 25.4134C122.699 25.3523 122.86 25.2401 123.146 25.0769C124.467 24.3462 125.588 23.4948 126.507 22.5228C127.916 21.0844 128.992 19.3552 129.733 17.3354C130.462 15.4772 130.882 13.5757 130.993 11.631C131.278 8.07495 130.301 5.13406 128.063 2.80832C127.862 2.58965 127.757 2.44724 127.748 2.38107C127.702 2.18005 127.809 2.05362 128.071 2.00178Z" fill="url(#paint2_linear_21_41)" shape-rendering="crispEdges"/>
</g>
<defs>
<filter id="filter0_d_21_41" x="0" y="17.1111" width="13.8647" height="13.8333" filterUnits="userSpaceOnUse" color-interpolation-filters="sRGB">
<feFlood flood-opacity="0" result="BackgroundImageFix"/>
<feColorMatrix in="SourceAlpha" type="matrix" values="0 0 0 0 0 0 0 0 0 0 0 0 0 0 0 0 0 0 127 0" result="hardAlpha"/>
<feOffset dx="-1" dy="2"/>
<feGaussianBlur stdDeviation="2"/>
<feComposite in2="hardAlpha" operator="out"/>
<feColorMatrix type="matrix" values="0 0 0 0 0.540972 0 0 0 0 0 0 0 0 0 0.854167 0 0 0 0.3 0"/>
<feBlend mode="normal" in2="BackgroundImageFix" result="effect1_dropShadow_21_41"/>
<feBlend mode="normal" in="SourceGraphic" in2="effect1_dropShadow_21_41" result="shape"/>
</filter>
<filter id="filter1_d_21_41" x="110.256" y="0" width="27.7443" height="35.8055" filterUnits="userSpaceOnUse" color-interpolation-filters="sRGB">
<feFlood flood-opacity="0" result="BackgroundImageFix"/>
<feColorMatrix in="SourceAlpha" type="matrix" values="0 0 0 0 0 0 0 0 0 0 0 0 0 0 0 0 0 0 127 0" result="hardAlpha"/>
<feOffset dx="-1" dy="2"/>
<feGaussianBlur stdDeviation="2"/>
<feComposite in2="hardAlpha" operator="out"/>
<feColorMatrix type="matrix" values="0 0 0 0 0.540972 0 0 0 0 0 0 0 0 0 0.854167 0 0 0 0.3 0"/>
<feBlend mode="normal" in2="BackgroundImageFix" result="effect1_dropShadow_21_41"/>
<feBlend mode="normal" in="SourceGraphic" in2="effect1_dropShadow_21_41" result="shape"/>
</filter>
<linearGradient id="paint0_linear_21_41" x1="2.34196" y1="29.8526" x2="14.9716" y2="12.4125" gradientUnits="userSpaceOnUse">
<stop offset="0.11478" stop-color="#0E1FD7"/>
<stop offset="0.671137" stop-color="#8A00DA" stop-opacity="0.84"/>
</linearGradient>
<linearGradient id="paint1_linear_21_41" x1="108.854" y1="34.6046" x2="152.839" y2="7.66779" gradientUnits="userSpaceOnUse">
<stop offset="0.11478" stop-color="#0E1FD7"/>
<stop offset="0.671137" stop-color="#8A00DA" stop-opacity="0.84"/>
</linearGradient>
<linearGradient id="paint2_linear_21_41" x1="108.854" y1="34.6046" x2="152.839" y2="7.66779" gradientUnits="userSpaceOnUse">
<stop offset="0.11478" stop-color="#0E1FD7"/>
<stop offset="0.671137" stop-color="#8A00DA" stop-opacity="0.84"/>
</linearGradient>
</defs>
</svg>
